<svg height='300px' width='300px'  fill="#000000" xmlns="http://www.w3.org/2000/svg" xmlns:xlink="http://www.w3.org/1999/xlink" version="1.1" x="0px" y="0px" viewBox="0 0 100 100" style="enable-background:new 0 0 100 100;" xml:space="preserve"><title>system-twitter-large</title><title>system-twitter-large</title><path d="M84.1,80.9v-5.9h-5.9V37.3h5.9v-8.4h-4.8L50,10.5L20.7,28.9h-4.8v8.4h5.9v37.7h-5.9v5.9h-5.7v8.4h79.5v-8.4H84.1z   M75.7,74.9h-6.2V37.3h6.2V74.9z M44,74.9h-11V37.3h11V74.9z M46.5,37.3h6.2v37.7h-6.2V37.3z M55.1,37.3h11.9v37.7H55.1V37.3z   M50,13.4l24.6,15.4H25.4L50,13.4z M18.4,34.8v-3.4h63.2v3.4h-3.4H67.1H55.1H44h-11H21.8H18.4z M24.3,37.3h6.2v37.7h-6.2V37.3z   M18.4,77.4h3.4h11.2h11h11.2h11.9h11.2h3.4v3.4H18.4V77.4z M87.2,86.8H12.8v-3.4h3.2h68.2h3.2V86.8z"></path></svg>