<svg height='300px' width='300px'  fill="#000000" xmlns="http://www.w3.org/2000/svg" xmlns:xlink="http://www.w3.org/1999/xlink" version="1.1" x="0px" y="0px" viewBox="0 0 197.98 216.516" style="enable-background:new 0 0 197.98 216.516;" xml:space="preserve"><g><path d="M109.002,38.691c0-12.426-10.074-22.5-22.5-22.5c-12.424,0-22.498,10.074-22.498,22.5c0,6.9,3.109,13.072,7.999,17.199   h28.999C105.893,51.763,109.002,45.591,109.002,38.691z"></path><path d="M124.131,68.559v39h-2.999v4.667h64.666v-4.667h-3v-39H124.131z M178.796,104.558h-50.663V72.559h50.663V104.558z"></path><rect x="112.047" y="117.391" width="85.933" height="9"></rect><rect x="24.001" y="117.391" width="29.957" height="9"></rect><path d="M68.457,160.259c-2.344,0-4.552-0.571-6.513-1.563v53.819c0,2.209,1.791,4,4,4h53.696c2.209,0,4-1.791,4-4v-52.257H68.457z   "></path><path d="M110.048,74.527c0.339-0.277,0.666-0.574,0.964-0.914l52.997-60.333c2.918-3.32,2.592-8.374-0.73-11.29   c-3.317-2.915-8.374-2.589-11.289,0.73l-48.543,55.262c-0.369-0.055-0.744-0.092-1.128-0.092H63.684   c-0.385,0-0.76,0.037-1.13,0.092L14.009,2.72C11.095-0.599,6.04-0.927,2.722,1.99C-0.6,4.904-0.926,9.959,1.989,13.28   l53.003,60.335c0.298,0.34,0.625,0.638,0.964,0.914l0.001,71.229h0.001c0,6.904,5.596,12.5,12.5,12.5h61.52v43.501   c0,6.902,5.596,12.5,12.5,12.5c6.904,0,12.5-5.598,12.5-12.5v-56.001c0-3.291-1.332-6.511-3.66-8.84   c-2.328-2.325-5.549-3.66-8.84-3.66h-32.43V74.527z"></path></g></svg>