<svg height='300px' width='300px'  fill="#000000" xmlns="http://www.w3.org/2000/svg" viewBox="0 0 64 64" x="0px" y="0px"><title>resume-profile-cv-contract-job-business</title><g><rect x="10" y="56" width="2" height="2"></rect><path d="M11,24H26a1,1,0,0,0,1-1V7a1,1,0,0,0-1-1H11a1,1,0,0,0-1,1V23A1,1,0,0,0,11,24Zm9.1-10.06a1.9,1.9,0,0,1-3.21,0,1.91,1.91,0,1,1,3.21,0ZM17,16.82h3a2,2,0,0,1,2,2v3H15v-3A2,2,0,0,1,17,16.82ZM12,8H25V22H24V18.82a4,4,0,0,0-2.34-3.63l.12-.16a3.91,3.91,0,1,0-6.57,0l.13.17A4,4,0,0,0,13,18.82V22H12Z"></path><rect x="29" y="6" width="9" height="2"></rect><rect x="29" y="10" width="15" height="2"></rect><rect x="29" y="14" width="6" height="2"></rect><rect x="29" y="18" width="20" height="2"></rect><rect x="29" y="22" width="20" height="2"></rect><rect x="14" y="56" width="20" height="2"></rect><rect x="14" y="52" width="32" height="2"></rect><rect x="10" y="52" width="2" height="2"></rect><rect x="14" y="31" width="15" height="2"></rect><rect x="10" y="31" width="2" height="2"></rect><rect x="14" y="43" width="9" height="2"></rect><rect x="10" y="43" width="2" height="2"></rect><rect x="14" y="35" width="35" height="2"></rect><rect x="14" y="39" width="26" height="2"></rect><rect x="10" y="35" width="2" height="2"></rect><rect x="10" y="48" width="13" height="2"></rect><rect x="10" y="27" width="13" height="2"></rect><path d="M57,4H53V3a1,1,0,0,0-1-1H7A1,1,0,0,0,6,3V61a1,1,0,0,0,1,1H52a1,1,0,0,0,1-1V60h4a1,1,0,0,0,1-1V5A1,1,0,0,0,57,4ZM51,60H8V4H51V60Zm5-2H53V6h3Z"></path></g></svg>