<svg height='300px' width='300px'  fill="#000000" xmlns="http://www.w3.org/2000/svg" xmlns:xlink="http://www.w3.org/1999/xlink" version="1.1" x="0px" y="0px" viewBox="0 0 100 100" style="enable-background:new 0 0 100 100;" xml:space="preserve"><rect x="7.22" y="92.144" width="83.976" height="5.702"></rect><polygon points="46.902,69.556 44.595,73.55 46.902,77.546 51.514,77.546 53.821,73.55 51.514,69.556 "></polygon><path d="M49.208,64.792c-4.837,0-8.759,3.922-8.759,8.759s3.922,8.759,8.759,8.759s8.759-3.922,8.759-8.759  S54.046,64.792,49.208,64.792z M52.092,78.546h-5.768l-2.884-4.995l2.884-4.994h5.768l2.884,4.994L52.092,78.546z"></path><path d="M23.62,25.01c-4.241,0-7.679,3.438-7.679,7.679s3.438,7.679,7.679,7.679s7.679-3.438,7.679-7.679S27.861,25.01,23.62,25.01z   M26.818,37.254l-5.552,0.488l-3.198-4.565l2.354-5.052l5.552-0.488l3.199,4.565L26.818,37.254z"></path><polygon points="25.487,28.684 21.084,29.07 19.218,33.076 21.753,36.695 26.156,36.309 28.022,32.303 "></polygon><path d="M30.967,37.288c-1.537,2.446-4.251,4.08-7.347,4.08c-0.671,0-1.322-0.084-1.95-0.229L39.47,73.953  c-0.005-0.134-0.02-0.267-0.02-0.402c0-5.381,4.378-9.759,9.759-9.759c1.441,0,2.805,0.322,4.037,0.885L30.967,37.288z"></path><path d="M55.77,13.917c-2.148-1.035-3.66-3.177-3.796-5.684L24.219,24.04c4.506,0.31,8.081,4.065,8.081,8.649  c0,0.602-0.062,1.189-0.179,1.757L55.77,13.917z"></path><polygon points="56.685,5.662 55.767,8.487 57.753,10.695 60.658,10.078 61.577,7.252 59.591,5.044 "></polygon><path d="M58.672,2.154c-3.157,0-5.716,2.559-5.716,5.716c0,3.157,2.559,5.716,5.716,5.716c3.157,0,5.716-2.559,5.716-5.716  C64.388,4.713,61.829,2.154,58.672,2.154z M61.238,10.721l-3.753,0.797l-2.566-2.852l1.186-3.648l3.754-0.797l2.566,2.852  L61.238,10.721z"></path><path d="M83.31,22.707c-1.617-1.335-4.103-0.995-5.552,0.76s-1.313,4.26,0.304,5.595L83.31,22.707z"></path><polygon points="84.806,22.696 90.085,25.808 92.78,29.551 91.406,32.01 90.7,32.509 90.083,32.129 90.152,31.234 90.813,29.982   89.046,27.571 86.386,26.003 81.905,31.429 83.947,33.745 86.649,35.025 87.753,34.138 88.619,33.901 89.109,34.435 88.753,35.223   86.598,37.037 82.413,35.098 78.359,30.503 "></polygon><path d="M76.987,22.83c0.543-0.657,1.213-1.131,1.93-1.456L65.385,7.935c-0.03,3.098-2.169,5.695-5.048,6.433l15.583,10.63  C76.108,24.219,76.455,23.474,76.987,22.83z"></path><path d="M69.732,91.144c-1.306-6.411-5.54-11.751-11.247-14.577c-1.274,3.909-4.948,6.743-9.276,6.743s-8.002-2.835-9.276-6.743  c-5.707,2.827-9.941,8.167-11.248,14.577H69.732z"></path></svg>